<?xml version="1.0" encoding="utf-8"?>
<!-- Generator: Adobe Illustrator 18.0.0, SVG Export Plug-In . SVG Version: 6.00 Build 0)  -->
<!DOCTYPE svg PUBLIC "-//W3C//DTD SVG 1.1//EN" "http://www.w3.org/Graphics/SVG/1.1/DTD/svg11.dtd">
<svg version="1.1" id="Layer_1" xmlns="http://www.w3.org/2000/svg" xmlns:xlink="http://www.w3.org/1999/xlink" x="0px" y="0px"
	 viewBox="0 0 64 64" enable-background="new 0 0 64 64" xml:space="preserve">
<g>
	<g>
		<g>
			<path d="M54,41V28c0-10.1-6.8-18.5-16-21.2V6.2c0-3-2.2-5.8-5.2-6.2C29.1-0.4,26,2.4,26,6v0.8C16.8,9.5,10,17.9,10,28v13
				c0,3.8-2.7,7.1-6.4,7.8C2.7,49,2,49.9,2,50.9v0C2,52.1,2.9,53,4.1,53h55.8c1.2,0,2.1-0.9,2.1-2.1v0c0-1-0.7-1.9-1.6-2.1
				C56.7,48.1,54,44.8,54,41z"/>
		</g>
	</g>
	<g>
		<g>
			<path d="M37.4,57h-1.6h-7.8h-1.6H25c0,3.9,3.1,7,7,7s7-3.1,7-7H37.4z"/>
		</g>
	</g>
</g>
</svg>
